<svg width="158" height="34" viewBox="0 0 158 34" fill="none" xmlns="http://www.w3.org/2000/svg">
<path fill-rule="evenodd" clip-rule="evenodd" d="M105.399 14.2631H95.8798V1.76074H105.31V4.20763H98.6125V6.74381H104.506V9.1907H98.6125V11.8162H105.399V14.2631ZM88.3003 12.5836C88.5265 12.1014 88.6396 11.5507 88.6396 10.9315V10.8958C88.6396 10.3481 88.5533 9.87777 88.3806 9.48484C88.208 9.0919 87.952 8.74958 87.6127 8.45786C87.2733 8.16614 86.8566 7.91609 86.3624 7.70772C85.8683 7.49935 85.3057 7.31181 84.6746 7.14511C84.1388 7.00223 83.6953 6.87721 83.344 6.77004C82.9927 6.66288 82.7159 6.54977 82.5135 6.4307C82.3111 6.31163 82.1712 6.17767 82.0938 6.02884C82.0164 5.88 81.9777 5.70437 81.9777 5.50195V5.46623C81.9777 5.15665 82.1116 4.89767 82.3795 4.6893C82.6474 4.48093 83.0493 4.37674 83.5851 4.37674C84.1209 4.37674 84.6567 4.48688 85.1926 4.70716C85.7284 4.92744 86.2761 5.22809 86.8357 5.60911L88.2646 3.5373C87.6216 3.0253 86.9161 2.63237 86.1481 2.35851C85.3801 2.08465 84.5377 1.94772 83.6208 1.94772C82.9779 1.94772 82.3885 2.03702 81.8526 2.21563C81.3168 2.39423 80.8554 2.65023 80.4685 2.98363C80.0815 3.31702 79.7808 3.71293 79.5665 4.17135C79.3522 4.62977 79.245 5.14474 79.245 5.71628V5.752C79.245 6.37116 79.3433 6.88911 79.5397 7.30586C79.7362 7.7226 80.013 8.07088 80.3702 8.3507C80.7274 8.63051 81.162 8.86567 81.674 9.05618C82.1861 9.2467 82.7576 9.41935 83.3887 9.57414C83.9126 9.70511 84.3382 9.83014 84.6657 9.94921C84.9931 10.0683 85.2491 10.1873 85.4337 10.3064C85.6182 10.4255 85.7433 10.5535 85.8087 10.6904C85.8742 10.8273 85.907 10.9851 85.907 11.1637V11.1994C85.907 11.5686 85.7492 11.8573 85.4337 12.0657C85.1181 12.274 84.6746 12.3782 84.1031 12.3782C83.3886 12.3782 82.7308 12.2413 82.1295 11.9674C81.5282 11.6936 80.9418 11.3245 80.3702 10.8601L78.7449 12.8069C79.4951 13.4856 80.3286 13.9886 81.2454 14.3161C82.1622 14.6435 83.0969 14.8073 84.0495 14.8073C84.7282 14.8073 85.3473 14.7209 85.907 14.5483C86.4666 14.3756 86.9488 14.1256 87.3537 13.7981C87.7585 13.4707 88.074 13.0659 88.3003 12.5836ZM70.035 14.6286H72.9105L67.5524 2.03702H65.0162L59.658 14.6286H62.4621L63.6052 11.8246H68.8919L70.035 14.6286ZM53.3682 12.6997C53.5885 12.2711 53.6986 11.771 53.6986 11.1994V11.1637C53.6986 10.3302 53.4902 9.67833 53.0735 9.208C52.6567 8.73767 52.0852 8.36558 51.3589 8.09172C51.5851 7.97265 51.7965 7.82977 51.9929 7.66307C52.1894 7.49637 52.362 7.30288 52.5109 7.0826C52.6597 6.86232 52.7788 6.61526 52.8681 6.34139C52.9574 6.06753 53.002 5.752 53.002 5.39479V5.35907C53.002 4.37078 52.6359 3.58493 51.9036 3.00149C51.1713 2.41804 50.1622 2.12632 48.8763 2.12632H43.0716V14.6286H49.0192C49.7217 14.6286 50.3617 14.5572 50.9392 14.4143C51.5167 14.2714 52.0108 14.0571 52.4216 13.7713C52.8324 13.4856 53.1479 13.1284 53.3682 12.6997ZM50.2694 5.82344V5.85916C50.2694 6.32353 50.0908 6.6599 49.7336 6.86828C49.3764 7.07665 48.8941 7.18084 48.2869 7.18084H45.7507V4.53749H48.4655C49.0489 4.53749 49.4954 4.64762 49.805 4.8679C50.1146 5.08819 50.2694 5.40669 50.2694 5.82344ZM50.966 10.8601V10.8244C50.966 10.4076 50.8052 10.0772 50.4837 9.83311C50.1622 9.58902 49.6443 9.46697 48.9299 9.46697H45.7507V12.2175H49.0192C49.6264 12.2175 50.1027 12.1073 50.448 11.8871C50.7933 11.6668 50.966 11.3245 50.966 10.8601ZM67.9096 9.39553L66.2486 5.34121L64.5875 9.39553H67.9096ZM55.2525 33.2631H52.3769L51.2339 30.459H45.9472L44.8041 33.2631H42L47.3581 20.6714H49.8943L55.2525 33.2631ZM50.2515 28.03L48.5905 23.9756L46.9295 28.03H50.2515ZM71.446 27.0298C71.7079 26.482 71.8389 25.845 71.8389 25.1187V25.083C71.8389 24.44 71.7287 23.8536 71.5085 23.3237C71.2882 22.7939 70.9727 22.3384 70.5619 21.9574C70.1511 21.5764 69.651 21.2817 69.0616 21.0733C68.4722 20.8649 67.8024 20.7607 67.0523 20.7607H61.9442V33.2631H64.6947V29.5124H66.7844C67.4869 29.5124 68.1447 29.4201 68.758 29.2355C69.3712 29.051 69.907 28.7741 70.3654 28.405C70.8238 28.0359 71.184 27.5775 71.446 27.0298ZM69.0527 25.1723V25.1366C69.0527 24.5174 68.8532 24.0471 68.4543 23.7256C68.0554 23.4041 67.5107 23.2433 66.8201 23.2433H64.6947V27.0655H66.8737C67.5643 27.0655 68.1001 26.8839 68.4811 26.5207C68.8621 26.1576 69.0527 25.7081 69.0527 25.1723ZM88.1395 27.0298C88.4015 26.482 88.5325 25.845 88.5325 25.1187V25.083C88.5325 24.44 88.4223 23.8536 88.202 23.3237C87.9818 22.7939 87.6662 22.3384 87.2554 21.9574C86.8447 21.5764 86.3446 21.2817 85.7552 21.0733C85.1658 20.8649 84.496 20.7607 83.7459 20.7607H78.6378V33.2631H81.3883V29.5124H83.478C84.1805 29.5124 84.8383 29.4201 85.4515 29.2355C86.0647 29.051 86.6006 28.7741 87.059 28.405C87.5174 28.0359 87.8776 27.5775 88.1395 27.0298ZM85.7462 25.1723V25.1366C85.7462 24.5174 85.5468 24.0471 85.1479 23.7256C84.749 23.4041 84.2043 23.2433 83.5137 23.2433H81.3883V27.0655H83.5673C84.2579 27.0655 84.7937 26.8839 85.1747 26.5207C85.5557 26.1576 85.7462 25.7081 85.7462 25.1723ZM104.637 33.2631H107.512L102.154 20.6714H99.6179L94.2597 33.2631H97.0638L98.2069 30.459H103.494L104.637 33.2631ZM102.511 28.03L100.85 23.9756L99.1892 28.03H102.511ZM121.795 33.2631H125.009L121.955 28.798C122.753 28.5003 123.399 28.0329 123.893 27.3959C124.387 26.7589 124.634 25.9343 124.634 24.9222V24.8865C124.634 23.5886 124.221 22.5766 123.393 21.8502C122.566 21.1239 121.408 20.7607 119.919 20.7607H114.204V33.2631H116.954V29.2623H119.116L121.795 33.2631ZM121.848 25.0651V25.0294C121.848 24.434 121.658 23.9875 121.277 23.6899C120.896 23.3922 120.366 23.2433 119.687 23.2433H116.954V26.8333H119.741C120.419 26.8333 120.94 26.6726 121.303 26.3511C121.667 26.0296 121.848 25.6009 121.848 25.0651ZM131.88 33.2631H141.399V30.8162H134.612V28.1907H140.506V25.7438H134.612V23.2076H141.31V20.7607H131.88V33.2631ZM157.593 33.2631H148.609V20.7607H151.36V30.7626H157.593V33.2631Z" fill="#423A3A"/>
<path fill-rule="evenodd" clip-rule="evenodd" d="M15.5 33C24.0604 33 31 26.0604 31 17.5C31 8.93959 24.0604 2 15.5 2C6.93959 2 0 8.93959 0 17.5C0 26.0604 6.93959 33 15.5 33ZM15.5 29.5C22.4036 29.5 28 24.1274 28 17.5C28 10.8726 22.4036 5.5 15.5 5.5C8.59644 5.5 3 10.8726 3 17.5C3 24.1274 8.59644 29.5 15.5 29.5Z" fill="url(#paint0_linear_0_164)"/>
<defs>
<linearGradient id="paint0_linear_0_164" x1="-15.5" y1="17.5" x2="15.5" y2="48.5" gradientUnits="userSpaceOnUse">
<stop stop-color="#F8BFBF"/>
<stop offset="1" stop-color="#EE8B8B"/>
</linearGradient>
</defs>
</svg>
